<?xml version="1.0" encoding="UTF-8"?>
<svg width="800" height="512" version="1.1" viewBox="0 0 512 512" xml:space="preserve" xmlns="http://www.w3.org/2000/svg"><defs><linearGradient id="linearGradient1067" x1="242.98" x2="245.92" y1="312.09" y2="180.12" gradientTransform="matrix(1.0134 0 0 1.0134 -1.9072 8.5533)" gradientUnits="userSpaceOnUse"><stop stop-color="#43802b" offset="0"/><stop stop-color="#71c74b" offset="1"/></linearGradient></defs><path d="m38.526 323.1h421.46l1.3665-1.9984c3.8767-5.0074 7.7532-10.015 12.255-15.325 4.5023-5.3106 9.6311-10.923 14.053-15.285 4.4219-4.3613 8.137-7.4706 9.9945-9.2469 1.8575-1.7762 1.8575-2.2204 1.3533-2.5238-0.50421-0.30328-1.5138-0.4648-5.1081 0.86763-3.5944 1.3325-9.7726 4.1591-15.244 7.208-5.4719 3.0489-10.237 6.3198-12.72 7.9352-2.483 1.6154-2.6849 1.5751-2.7058 1.01-0.0209-0.56506 0.14068-1.6553 1.3925-4.9467 1.2518-3.2913 3.5939-8.7831 7.4302-16.577s9.1666-17.889 12.276-23.301c3.1095-5.4114 3.9979-6.1383 3.7965-6.784-0.20137-0.64579-1.4936-1.2112-3.9979 0.76741-2.5044 1.9785-6.2194 6.5012-9.7326 10.782-3.5133 4.2805-6.8245 8.3186-9.6512 12.478-2.8268 4.1595-5.1689 8.4399-6.4207 10.904-1.2518 2.4637-1.4133 3.1096-1.8974 3.4323-0.48401 0.32268-1.2916 0.3227-1.4941-0.84799s0.20133-3.5128 0.48406-6.7836c0.28271-3.2709 0.44424-7.4705 0.44429-11.065 5e-5 -3.5939-0.16149-6.5822-0.36283-8.1571-0.20136-1.5751-0.44365-1.7365-0.88823-1.6563-0.44459 0.0803-1.0907 0.40333-2.787 3.9574-1.6964 3.554-4.4423 10.338-5.9767 14.82-1.5344 4.4825-1.8575 6.6631-2.3821 7.8336-0.52453 1.1705-1.2514 1.3321-1.6555-0.32299-0.40418-1.6551-0.48494-5.1279-0.85641-9.715-0.37147-4.5872-1.0337-10.288-1.8502-15.623-0.81651-5.335-1.7873-10.304-2.9294-14.701s-2.4556-8.2235-3.2548-10.137c-0.79919-1.9139-1.0848-1.9138-1.3709-1.7424-0.28609 0.17138-0.57163 0.51403-0.7715 1.7423-0.19987 1.2283-0.31408 3.3413-0.31404 6.3966 4e-5 3.0554 0.11427 7.0529 0.31416 11.622 0.1999 4.5688 0.48543 9.7084-0.20002 14.934-0.68544 5.2253-2.3415 10.537-3.7978 14.163-1.4563 3.6263-2.7127 5.5678-3.3407 6.3392-0.62812 0.77135-0.62812 0.3716-0.71375-1.1417-0.0856-1.5134-0.25695-4.1403 0.34258-8.2809 0.59952-4.1406 1.9701-9.7942 2.8552-13.449 0.88519-3.655 1.2849-5.3111 1.1142-6.0824-0.17083-0.77139-0.91322-0.65717-2.4557 0.91348-1.5424 1.5706-3.8838 4.5973-6.1682 7.824s-4.5116 6.6532-5.796 8.3948c-1.2844 1.7416-1.6271 1.7988-1.9129 1.4567-0.28579-0.34203-0.5142-1.0844 0.39928-6.1959 0.91349-5.1116 2.9694-14.591 5.0824-23.928 2.113-9.3374 4.2831-18.532 5.226-23.3 0.94283-4.7684 0.65729-5.111 0.0572-4.7403-0.60015 0.37071-1.5139 1.4557-4.1124 5.9389-2.5985 4.4832-6.8816 12.364-10.394 19.045-3.5122 6.6816-6.2533 12.164-8.0808 15.848-1.8274 3.6835-2.7411 5.568-3.5978 8.4522-0.85661 2.8842-1.6562 6.7675-2.1697 8.5381-0.51351 1.7706-0.74194 1.4279-0.91365-1.7988s-0.28593-9.3373-0.34304-14.048c-0.0572-4.7115-0.0572-8.0238-0.25639-9.7658-0.19927-1.7421-0.59902-1.9134-1.1138-1.428-0.51469 0.48534-1.1428 1.6275-2.4278 4.8828-1.2849 3.2554-3.2266 8.6234-4.6257 12.706-1.3992 4.0833-2.2558 6.8816-2.8269 9.3088-0.57105 2.4273-0.85658 4.4831-1.2273 5.5391-0.3707 1.056-0.82757 1.1132-1.5984 0.71385-0.77086-0.39927-1.8559-1.2558-2.5703-5.1106-0.71439-3.8548-1.057-10.708-1.9136-18.103-0.85656-7.395-2.2271-15.333-3.7975-21.958-1.5704-6.6248-3.3407-11.935-4.7395-14.934-1.3988-2.9988-2.4267-3.6837-3.0556-3.5981-0.62887 0.0856-0.85731 0.94223-0.37167 4.569 0.48564 3.6267 1.6849 10.023 2.2844 14.648 0.59953 4.6257 0.59953 7.4811 0.99936 12.392 0.39983 4.9112 1.1993 11.878 1.2848 18.131 0.0855 6.2529-0.54263 11.792-1.0846 14.562-0.54198 2.7693-0.99884 2.7693-1.342 0.48546-0.34314-2.2839-0.57157-6.8524-0.80002-13.305s-0.45688-14.791-0.68476-19.045c-0.22788-4.2547-0.4563-4.426-0.97096-3.7123-0.51466 0.71365-1.3141 2.3127-2.7134 5.7393-1.3992 3.4266-3.398 8.6805-4.6829 12.878-1.2849 4.1976-1.856 7.3385-2.4271 9.737-0.57107 2.3985-1.1421 4.0546-1.5701 4.9394-0.42795 0.88478-0.71348 0.99899-0.85652-0.39959-0.14304-1.3985-0.14304-4.311-2.7e-4 -11.307 0.14276-6.9958 0.42829-18.075 0.71382-25.87 0.28552-7.7953 0.57106-12.307 0.71386-14.934s0.1428-3.3694-0.17132-3.3984c-0.31411-0.029-0.9423 0.65626-2.1131 2.9123-1.1708 2.256-2.884 6.0822-4.997 11.765-2.113 5.6824-4.6257 13.22-6.0533 20.274-1.4276 7.0531-1.7703 13.621-1.9415 17.561-0.1713 3.9405-0.1713 5.254-0.45648 5.454-0.28517 0.19995-0.85625-0.71377-1.4276-3.6835-0.5714-2.9698-1.1424-7.9952-2.6271-13.449-1.4847-5.4539-3.8832-11.336-6.3386-15.762-2.4554-4.426-4.9682-7.3955-7.3096-9.8799-2.3414-2.4843-4.5115-4.483-5.9678-5.4829-1.4563-0.99986-2.1986-0.99989-2.5704-0.99989-0.37171 0 2.5408 2.9125 3.6834 4.7977 1.1425 1.8852 3.4268 5.6542 4.9115 8.7096 1.4847 3.0554 2.17 5.3967 2.8552 8.195 0.68526 2.7983 1.3706 6.0534 1.8845 9.7654 0.5139 3.712 0.85655 7.8809 0.74222 11.822-0.11433 3.9404-0.6854 7.6523-1.3136 9.9077-0.62817 2.2554-1.3134 3.0549-1.9411 3.4546s-1.1987 0.39972-1.5704-1.9984c-0.3717-2.3981-0.54302-7.1951-0.68578-10.65s-0.25698-5.568-0.68482-6.625c-0.42785-1.057-1.1702-1.057-1.8562-0.28581-0.68593 0.77124-1.3141 2.3132-2.1136 3.8264-0.7995 1.5132-1.7703 2.998-2.455 3.5125-0.68475 0.51438-1.0845 0.0576-1.513-0.62772-0.42848-0.68524-0.88535-1.599-0.37176-3.6838 0.51358-2.0848 1.9984-5.34 3.112-8.6807 1.1137-3.3407 1.856-6.7672 1.9992-8.9656 0.1432-2.1984-0.31372-3.1693-0.97076-3.227-0.65704-0.0577-1.5137 0.7989-3.7124 4.197-2.1988 3.3981-5.7395 9.3374-8.1951 13.792-2.4556 4.4546-3.8262 7.4241-4.9399 9.7656s-1.9702 4.0546-2.5125 4.5119c-0.54228 0.45726-0.77068-0.34224-1.3806-3.576-0.60993-3.2338-1.6012-8.9015-3.5908-15.046-1.9896-6.1453-4.9778-12.767-7.1985-16.604-2.2207-3.8365-3.6744-4.8864-3.9979-3.7958-0.32349 1.0906 0.48414 4.321 1.3322 8.3592 0.84798 4.0382 1.7363 8.884 2.0593 14.255 0.32293 5.3707 0.0807 11.266-0.16144 13.81-0.24209 2.5441-0.48438 1.7365-2.0188-1.5344-1.5344-3.271-4.3611-9.0051-6.0569-11.872-1.6959-2.8677-2.2612-2.8677-2.9078-2.2214-0.64672 0.64629-1.3736 1.9385-2.0197 5.4924-0.64607 3.5539-1.2114 9.3688-1.9785 12.64-0.76714 3.2705-1.7363 3.9973-2.2209 2.5845-0.48463-1.4128-0.48467-4.9663-0.12126-11.145 0.36341-6.1785 1.0902-14.982 1.8171-22.048 0.72686-7.0669 1.4537-12.397 2.9479-18.414 1.4941-6.0171 3.7554-12.721 4.6041-16.274s0.28334-3.9573-1.3327-1.575c-1.6159 2.3824-4.2812 7.5511-7.9559 14.577-3.6748 7.0266-8.359 15.91-11.671 22.856-3.3117 6.9461-5.2496 11.953-6.5418 15.789-1.2922 3.8364-1.9383 6.5015-2.3824 6.5017-0.44406 1.7e-4 -0.68634-2.6649-1.2517-6.7032-0.5653-4.0382-1.4537-9.4493-2.5846-11.388-1.1308-1.9389-2.5038-0.40437-4.0383 2.8669s-3.2306 8.2784-4.4414 10.741-1.9377 2.3823-3.2304-3.9976c-1.2927-6.38-3.1503-19.06-4.8866-29.034-1.7364-9.9743-3.3516-17.243-5.5725-23.704-2.2208-6.4612-5.0475-12.115-6.7035-14.74-1.656-2.6254-2.1405-2.2216-1.9385 0.32307 0.20197 2.5447 1.0904 7.2289 1.8172 12.559 0.72681 5.3305 1.2921 11.307 1.8171 17.889s1.0095 13.771 1.171 21.564c0.16149 7.7937-4e-5 16.193-0.20198 21.684-0.20195 5.4918-0.44423 8.0763-0.72629 9.2473-0.28207 1.171-0.60512 0.92875-1.4536-2.3825-0.84848-3.3112-2.2214-9.6914-3.3518-13.407-1.1304-3.7151-2.0188-4.7651-2.9077-4.5636-0.88899 0.20147-1.7774 1.6552-2.3022 3.917-0.52491 2.2618-0.68643 5.3307-1.0904 7.6323-0.4039 2.3015-1.05 3.836-1.817 4.8452-0.76698 1.0092-1.6553 1.4938-2.2208-0.28242-0.56549-1.7762-0.80778-5.8143-0.36365-12.154 0.44412-6.3402 1.5748-14.982 3.0286-23.058 1.4538-8.0765 3.2305-15.588 3.7962-19.948 0.56575-4.361-0.0804-5.5725-1.3327-4.0787-1.2523 1.4938-3.1098 5.6935-5.3712 11.468-2.2614 5.7747-4.9265 13.124-6.9457 20.231-2.0192 7.1072-3.3921 13.972-4.1188 18.414-0.72681 4.4421-0.80758 6.4612-1.1305 7.6721s-0.88828 1.6147-1.6554 0.72697c-0.76706-0.88774-1.7362-3.0683-2.1807-5.128-0.44448-2.0596-0.36372-3.9979-1.171-6.3804-0.80727-2.3825-2.5033-5.209-3.7151-5.8556-1.212-0.64648-1.9388 0.888-2.7867 3.9168-0.84801 3.0288-1.8172 7.5515-2.342 11.59-0.5249 4.0383-0.60566 7.5918-0.88818 8.3592-0.28252 0.76733-0.76709-1.2517-2.8669-8.6821-2.0998-7.4304-5.8149-20.272-9.2877-31.579-3.4728-11.307-6.7034-21.079-9.9337-28.267-3.2304-7.1881-6.4608-11.791-8.1169-13.488-1.656-1.6961-1.7368-0.4847-0.6463 3.9979 1.0905 4.4826 3.3518 12.236 5.5324 20.837 2.1806 8.6014 4.2804 18.05 5.6937 26.45 1.4133 8.3994 2.1402 15.749 2.5035 20.595 0.36338 4.8458 0.36338 7.1879-0.0806 7.4303-0.44391 0.24238-1.3323-1.6151-3.0284-6.138-1.6961-4.5228-4.1998-11.71-7.0667-17.808-2.867-6.0977-6.0974-11.105-7.9555-13.084-1.858-1.979-2.3426-0.92915-2.1809 2.0192 0.16174 2.9483 0.96936 7.794 1.5751 13.367 0.60572 5.5732 1.0095 11.872 1.1306 16.233 0.12107 4.3612-0.0404 6.784-0.44364 7.8741-0.40317 1.09-1.0493 0.84778-1.5344-1.6152-0.48516-2.463-0.80821-7.1472-1.212-11.266-0.40377-4.1189-0.88835-7.6725-1.5743-9.5708-0.68598-1.8984-1.5744-2.1407-2.4634-1.131-0.88912 1.0097-1.7775 3.271-2.7063 5.3305-0.92878 2.0594-1.898 3.9169-2.5034 4.2807-0.60551 0.36383-0.84779-0.76684-1.1306-9.2473-0.2828-8.4804-0.60584-24.309-0.56549-37.676 0.0403-13.366 0.44417-24.27 3.4e-4 -29.56-0.44383-5.2901-1.736-4.9676-3.9171 2.4634-2.1811 7.4309-5.25 21.968-7.3095 32.306s-3.1094 16.475-3.7554 21.847c-0.64606 5.3709-0.88836 9.9743-1.0095 14.82-0.12112 4.8458-0.12112 9.9339-0.32312 13.245-0.202 3.3112-0.60582 4.8456-1.2917 5.1688-0.68588 0.32318-1.655-0.56521-2.5438-3.3515-0.88883-2.7863-1.6965-7.4705-2.383-11.751-0.6865-4.2802-1.2519-8.1571-1.6956-10.096-0.44368-1.9388-0.76682-1.9389-1.6558 0.20169-0.88902 2.1406-2.3428 6.4209-3.2311 10.055-0.88835 3.6346-1.2114 6.6227-1.6146 8.0762-0.4032 1.4534-0.88777 1.3726-1.7362-1.7768-0.84849-3.1493-2.0599-9.368-3.9579-17.646-1.898-8.2783-4.4823-18.616-7.6724-28.469-3.1901-9.8532-6.9859-19.222-10.459-25.804-3.4727-6.5822-6.6224-10.379-8.4401-11.953s-2.3023-0.92925-1.0906 4.0787c1.2118 5.0079 4.1192 14.377 6.6632 23.704 2.544 9.3282 4.7246 18.616 6.4609 27.338 1.7364 8.7225 3.0285 16.88 3.513 22.372 0.48444 5.4918 0.16139 8.3185-8.7e-5 10.257-0.16148 1.9384-0.16148 2.9883-0.64586 2.0999-0.48438-0.88837-1.4536-3.715-3.5937-9.0455-2.1402-5.3305-5.4515-13.165-8.2376-18.414-2.7861-5.2497-5.0475-7.9149-6.1383-8.5205-1.0908-0.60572-1.01 0.84799-0.52529 3.6748 0.48468 2.8269 1.3731 7.0264 2.2211 10.338 0.8481 3.3113 1.6557 5.7342 2.1805 8.3186 0.52482 2.5844 0.7671 5.3303 0.76703 9.3685s-0.24236 9.3685-0.72637 11.993c-0.48402 2.6244-1.2109 2.5436-1.9381 1.6154-0.72719-0.92825-1.4541-2.7051-2.5444-6.6625-1.0904-3.9575-2.5441-10.095-3.5134-15.911-0.96926-5.8151-1.4539-11.307-1.6962-17.364-0.24231-6.0573-0.24234-12.68 0.36334-20.272 0.60568-7.5919 1.8171-16.153 1.8985-20.514 0.08139-4.3616-0.96852-4.523-2.1806-2.3018-1.2122 2.2212-2.5851 6.8247-3.9984 12.64s-2.8671 12.841-3.5131 19.505c-0.64596 6.6633-0.48449 12.963-0.24219 19.706 0.2423 6.7438 0.56535 13.932 1.2117 19.1 0.64628 5.1689 1.6154 8.3187 1.535 9.7719-0.08038 1.4533-1.2111 1.211-3.3112-2.3422-2.1002-3.5532-5.1691-10.418-8.5611-16.435-3.392-6.017-7.107-11.185-10.298-14.941-3.1905-3.7558-5.8552-6.0977-7.1883-6.5822-1.3331-0.48453-1.3332 0.88841-0.08096 3.998 1.2522 3.1095 3.7558 7.9553 6.2595 13.124 2.5037 5.1689 5.0073 10.66 7.5513 16.839 2.544 6.1785 5.1284 13.043 6.8243 19.181 1.6959 6.1381 2.5035 11.549 3.0639 15.355 0.56038 3.8058 0.87336 6.0054 1.1865 8.2061z" fill="url(#linearGradient1067)" fill-rule="evenodd" stroke-linecap="round" stroke-linejoin="round" stroke-width="3.5545"/></svg>
